<svg width="288" height="134" viewBox="0 0 288 134"  xmlns="http://www.w3.org/2000/svg">
<path d="M20.352 95.008C16.96 95.008 14.112 93.984 11.808 91.936C9.504 89.824 8.352 86.72 8.352 82.624V52.672H0V46.336H8.352V32.8H15.264V46.336H27.648V52.672H15.264V80.416C15.264 83.104 15.68 85.12 16.512 86.464C17.344 87.808 19.04 88.48 21.6 88.48C22.752 88.48 23.872 88.384 24.96 88.192C26.048 87.936 26.944 87.648 27.648 87.328V93.856C26.752 94.176 25.6 94.432 24.192 94.624C22.848 94.88 21.568 95.008 20.352 95.008Z" />
<path d="M56.667 95.68C54.555 95.68 52.411 95.456 50.235 95.008C48.123 94.56 46.139 93.792 44.283 92.704C42.491 91.616 41.019 90.144 39.867 88.288C38.779 86.368 38.235 83.968 38.235 81.088C38.235 77.12 38.971 73.952 40.443 71.584C41.979 69.152 44.059 67.424 46.683 66.4C49.371 65.312 52.443 64.768 55.899 64.768C58.523 64.768 60.795 64.928 62.715 65.248C64.635 65.568 66.331 66.048 67.803 66.688C69.339 67.264 70.715 67.936 71.931 68.704L73.275 75.04C71.803 73.952 69.659 73.024 66.843 72.256C64.091 71.424 61.051 71.008 57.723 71.008C53.691 71.008 50.587 71.776 48.411 73.312C46.235 74.848 45.147 77.088 45.147 80.032C45.147 82.4 45.787 84.288 47.067 85.696C48.411 87.104 50.075 88.096 52.059 88.672C54.107 89.248 56.187 89.536 58.299 89.536C62.459 89.536 65.595 89.248 67.707 88.672C69.883 88.032 70.971 86.624 70.971 84.448V62.464C70.971 58.752 69.883 56.032 67.707 54.304C65.531 52.576 62.427 51.712 58.395 51.712C55.835 51.712 53.115 52.096 50.235 52.864C47.419 53.568 44.987 54.72 42.939 56.32V49.408C44.923 48.128 47.579 47.168 50.907 46.528C54.235 45.824 57.467 45.472 60.603 45.472C62.715 45.472 64.667 45.696 66.459 46.144C68.251 46.528 69.851 47.136 71.259 47.968C72.667 48.736 73.851 49.76 74.811 51.04C75.835 52.256 76.603 53.696 77.115 55.36C77.691 56.96 77.979 58.784 77.979 60.832V84.064C77.979 87.456 76.955 89.984 74.907 91.648C72.923 93.312 70.299 94.4 67.035 94.912C63.835 95.424 60.379 95.68 56.667 95.68Z" />
<path d="M112.895 44.512C111.103 44.512 109.503 45.12 108.095 46.336C106.687 47.488 105.983 49.152 105.983 51.328C105.983 53.504 106.719 55.552 108.191 57.472C109.727 59.392 111.583 61.088 113.759 62.56C115.935 63.968 118.111 65.44 120.287 66.976C122.527 68.448 124.479 70.304 126.143 72.544C127.807 74.72 128.735 77.152 128.927 79.84C128.927 84.448 126.943 88.32 122.975 91.456C119.007 94.592 114.079 96.16 108.191 96.16C102.303 96.16 97.6632 94.976 94.2712 92.608C90.9432 90.24 89.2793 87.52 89.2793 84.448C89.2793 81.376 90.2072 78.912 92.0632 77.056C93.9832 75.136 96.3513 74.176 99.1673 74.176C100.639 74.176 102.015 74.432 103.295 74.944C101.247 77.12 100.223 79.424 100.223 81.856C100.223 84.288 100.895 86.24 102.239 87.712C103.583 89.184 105.407 89.92 107.711 89.92C110.015 89.92 111.935 89.344 113.471 88.192C115.071 86.976 115.871 85.44 115.871 83.584C115.871 81.664 115.327 79.968 114.239 78.496C113.151 77.024 111.775 75.744 110.111 74.656C108.511 73.504 106.751 72.224 104.831 70.816C102.911 69.408 101.119 68 99.4553 66.592C97.8553 65.12 96.5112 63.296 95.4232 61.12C94.3352 58.88 93.7913 56.448 93.7913 53.824C93.7913 49.28 95.6473 45.568 99.3593 42.688C103.135 39.744 107.807 38.272 113.375 38.272C119.007 38.272 123.103 39.36 125.663 41.536C128.287 43.712 129.599 46.272 129.599 49.216C129.599 52.096 128.671 54.56 126.815 56.608C125.023 58.656 122.687 59.68 119.807 59.68C118.399 59.68 116.799 59.392 115.007 58.816C116.415 57.6 117.503 56.224 118.271 54.688C119.039 53.088 119.423 51.52 119.423 49.984C119.423 48.448 118.783 47.168 117.503 46.144C116.223 45.056 114.687 44.512 112.895 44.512Z" />
<path d="M146.875 65.536L167.899 46.336H176.539L148.411 71.2L146.875 65.536ZM148.411 94.24H141.499V28.096H148.411V94.24ZM150.331 64.384L179.995 94.24H170.779L145.627 68.8L150.331 64.384Z" />
<path d="M179.995 69.28V62.56H209.275V69.28H179.995Z" />
<path d="M255.212 68.832C256.044 68.832 256.684 69.216 257.132 69.984C257.644 70.752 257.9 71.808 257.9 73.152C257.9 75.712 257.292 77.696 256.076 79.104C253.324 82.496 250.316 85.28 247.052 87.456C243.852 89.632 240.204 90.72 236.108 90.72C230.476 90.72 226.284 88.16 223.532 83.04C220.844 77.92 219.5 71.296 219.5 63.168C219.5 55.36 220.492 46.464 222.476 36.48C224.524 26.496 227.5 17.92 231.404 10.752C235.372 3.584 240.076 0 245.516 0C248.588 0 250.988 1.44 252.716 4.32C254.508 7.136 255.404 11.2 255.404 16.512C255.404 24.128 253.292 32.96 249.068 43.008C244.844 53.056 239.116 63.008 231.884 72.864C232.332 75.488 233.068 77.376 234.092 78.528C235.116 79.616 236.46 80.16 238.124 80.16C240.748 80.16 243.052 79.424 245.036 77.952C247.02 76.416 249.548 73.824 252.62 70.176C253.388 69.28 254.252 68.832 255.212 68.832ZM243.404 9.504C241.932 9.504 240.268 12.16 238.412 17.472C236.556 22.784 234.924 29.376 233.516 37.248C232.108 45.12 231.34 52.672 231.212 59.904C235.756 52.416 239.372 44.928 242.06 37.44C244.748 29.888 246.092 23.008 246.092 16.8C246.092 11.936 245.196 9.504 243.404 9.504Z" />
<path d="M283.741 45.504C285.213 45.504 286.237 45.696 286.812 46.08C287.389 46.464 287.676 47.104 287.676 48C287.676 49.536 286.845 55.008 285.181 64.416C283.709 73.44 282.845 78.784 282.589 80.448C280.221 96.896 276.957 109.92 272.797 119.52C268.637 129.12 263.101 133.92 256.189 133.92C252.925 133.92 250.268 132.896 248.22 130.848C246.172 128.864 245.148 126.24 245.148 122.976C245.148 119.968 245.82 116.896 247.164 113.76C248.572 110.624 251.132 107.008 254.844 102.912C258.62 98.88 263.932 94.24 270.78 88.992L271.068 86.784C271.516 84.416 272.028 81.024 272.604 76.608C271.324 81.216 269.532 84.736 267.228 87.168C264.924 89.536 262.492 90.72 259.932 90.72C257.052 90.72 254.684 89.408 252.828 86.784C251.036 84.096 250.141 80.768 250.141 76.8C250.141 72 250.46 67.616 251.1 63.648C251.74 59.616 252.796 55.36 254.268 50.88C254.908 48.96 255.804 47.584 256.956 46.752C258.108 45.92 259.932 45.504 262.428 45.504C263.836 45.504 264.797 45.728 265.309 46.176C265.885 46.624 266.172 47.296 266.172 48.192C266.172 48.704 265.82 50.432 265.116 53.376C264.476 55.744 263.965 57.888 263.581 59.808C263.069 62.432 262.621 64.96 262.237 67.392C261.853 69.76 261.66 71.712 261.66 73.248C261.66 75.68 262.332 76.896 263.676 76.896C264.636 76.896 265.82 75.936 267.228 74.016C268.7 72.096 270.236 69.184 271.836 65.28C273.5 61.376 275.101 56.576 276.637 50.88C277.149 48.96 277.916 47.584 278.94 46.752C280.028 45.92 281.629 45.504 283.741 45.504ZM257.245 124.608C258.845 124.608 260.636 122.752 262.62 119.04C264.604 115.328 266.589 109.152 268.573 100.512C263.645 104.672 260.06 108.448 257.82 111.84C255.644 115.296 254.556 118.304 254.556 120.864C254.556 121.952 254.749 122.848 255.133 123.552C255.581 124.256 256.285 124.608 257.245 124.608Z" />
<path d="M64 81C64 83.7614 61.7614 86 59 86C56.2386 86 54 83.7614 54 81C54 78.2386 56.2386 76 59 76C61.7614 76 64 78.2386 64 81Z" />
</svg>
